<svg id="Layer_1" data-name="Layer 1" xmlns="http://www.w3.org/2000/svg" xmlns:xlink="http://www.w3.org/1999/xlink" viewBox="0 0 138.26 18.76"><defs><style>.cls-1{fill:#fff;}.cls-2{fill:none;}.cls-3{fill:url(#linear-gradient);}.cls-4{opacity:0.5;fill:url(#linear-gradient-2);}</style><linearGradient id="linear-gradient" x1="13.12" y1="11.37" x2="19.74" y2="11.37" gradientUnits="userSpaceOnUse"><stop offset="0" stop-color="#0c3570"/><stop offset="1" stop-color="#3fa9f5"/></linearGradient><linearGradient id="linear-gradient-2" x1="7144.11" y1="7193.98" x2="7148.89" y2="7200.14" gradientTransform="translate(31.14 -30.5) rotate(0.24)" gradientUnits="userSpaceOnUse"><stop offset="0.19" stop-color="#fff"/><stop offset="0.55" stop-color="#fff" stop-opacity="0.13"/></linearGradient></defs><title>aeweather svg</title><path class="cls-1" d="M7185.24,7190l-3.74,13.84h-4.69l-2.18-9-2.26,9h-4.66l-3.77-13.84h4.24l2,9.9,2.33-9.9H7177l2.35,9.85,1.94-9.85Z" transform="translate(-7131.76 -7185.48)"/><path class="cls-1" d="M7199.83,7197.93h-9.6a2.83,2.83,0,0,0,.83,2,2.52,2.52,0,0,0,1.8.68,2.23,2.23,0,0,0,2.21-1.34h4.51a6.21,6.21,0,0,1-3.52,4.17,7.9,7.9,0,0,1-6.67-.25,6.11,6.11,0,0,1-2.48-2.48,7.59,7.59,0,0,1-.9-3.77,7.83,7.83,0,0,1,.88-3.77,6.14,6.14,0,0,1,2.47-2.48,7.46,7.46,0,0,1,3.65-.87,7.3,7.3,0,0,1,3.57.85,6,6,0,0,1,2.44,2.4,7.28,7.28,0,0,1,.88,3.65A10.67,10.67,0,0,1,7199.83,7197.93Zm-4.27-2.36a2.18,2.18,0,0,0-.74-1.73,2.76,2.76,0,0,0-1.86-.65,2.71,2.71,0,0,0-1.8.62,2.76,2.76,0,0,0-.91,1.76Z" transform="translate(-7131.76 -7185.48)"/><path class="cls-1" d="M7227.08,7200.24v3.59h-2.16a5.25,5.25,0,0,1-3.6-1.13A4.65,4.65,0,0,1,7220,7199v-5.51h-1.69V7190H7220v-3.37h4.24V7190h2.78v3.52h-2.78v5.56a1.19,1.19,0,0,0,.29.89,1.42,1.42,0,0,0,1,.28Z" transform="translate(-7131.76 -7185.48)"/><path class="cls-1" d="M7241.76,7191.42a6.17,6.17,0,0,1,1.44,4.33v8.08H7239v-7.51a3,3,0,0,0-.72-2.16,2.82,2.82,0,0,0-3.87,0,3,3,0,0,0-.72,2.16v7.51h-4.24v-18.35h4.24v6.37a4.46,4.46,0,0,1,1.76-1.46,5.53,5.53,0,0,1,2.5-.55A4.91,4.91,0,0,1,7241.76,7191.42Z" transform="translate(-7131.76 -7185.48)"/><path class="cls-1" d="M7259.13,7197.93h-9.6a2.83,2.83,0,0,0,.83,2,2.52,2.52,0,0,0,1.8.68,2.23,2.23,0,0,0,2.21-1.34h4.51a6.21,6.21,0,0,1-3.52,4.17,7.9,7.9,0,0,1-6.67-.25,6.19,6.19,0,0,1-2.49-2.48,7.7,7.7,0,0,1-.89-3.77,7.83,7.83,0,0,1,.88-3.77,6.14,6.14,0,0,1,2.47-2.48,7.46,7.46,0,0,1,3.65-.87,7.3,7.3,0,0,1,3.57.85,6.06,6.06,0,0,1,2.44,2.4,7.28,7.28,0,0,1,.88,3.65A10.67,10.67,0,0,1,7259.13,7197.93Zm-4.27-2.36a2.18,2.18,0,0,0-.74-1.73,2.76,2.76,0,0,0-1.86-.65,2.71,2.71,0,0,0-1.8.62,2.76,2.76,0,0,0-.91,1.76Z" transform="translate(-7131.76 -7185.48)"/><path class="cls-1" d="M7267.54,7190.5a4.77,4.77,0,0,1,2.48-.66v4.49h-1.17a3.59,3.59,0,0,0-2.38.68,3.05,3.05,0,0,0-.79,2.4v6.42h-4.24V7190h4.24v2.31A5.51,5.51,0,0,1,7267.54,7190.5Z" transform="translate(-7131.76 -7185.48)"/><path class="cls-2" d="M7156.2,7193.19a2.71,2.71,0,0,0-1.8.62,2.76,2.76,0,0,0-.91,1.76h5.31a2.18,2.18,0,0,0-.74-1.73A2.76,2.76,0,0,0,7156.2,7193.19Z" transform="translate(-7131.76 -7185.48)"/><path class="cls-2" d="M7139.75,7193.49a2.91,2.91,0,0,0-2.15.9,3.48,3.48,0,0,0-.88,2.5,3.52,3.52,0,0,0,.88,2.51,3,3,0,0,0,4.3,0,4,4,0,0,0,0-5A2.85,2.85,0,0,0,7139.75,7193.49Z" transform="translate(-7131.76 -7185.48)"/><path class="cls-1" d="M7163.14,7196.69a7.28,7.28,0,0,0-.88-3.65,6.06,6.06,0,0,0-2.44-2.4,7.3,7.3,0,0,0-3.57-.85,7.46,7.46,0,0,0-3.65.87,6.06,6.06,0,0,0-2.27,2.17,4.55,4.55,0,0,1-.06,8.06,6.24,6.24,0,0,0,2.35,2.27,7.44,7.44,0,0,0,3.63.87,7.36,7.36,0,0,0,3.05-.62,6.21,6.21,0,0,0,3.52-4.17h-4.52a2.2,2.2,0,0,1-2.2,1.34,2.52,2.52,0,0,1-1.8-.68,2.83,2.83,0,0,1-.83-2h9.6A10.67,10.67,0,0,0,7163.14,7196.69Zm-9.65-1.12a2.76,2.76,0,0,1,.91-1.76,2.71,2.71,0,0,1,1.8-.62,2.76,2.76,0,0,1,1.86.65,2.18,2.18,0,0,1,.74,1.73Z" transform="translate(-7131.76 -7185.48)"/><circle class="cls-3" cx="16.43" cy="11.37" r="3.31"/><path class="cls-4" d="M7150.93,7195a3.31,3.31,0,0,0-5.59,3.51,5.29,5.29,0,0,0,.8.07A5,5,0,0,0,7150.93,7195Z" transform="translate(-7131.76 -7185.48)"/><path class="cls-1" d="M7216.41,7190.06v14h-3.87v-1.61a5.39,5.39,0,0,1-4.36,1.82,7.2,7.2,0,0,1,0-14.39,5.39,5.39,0,0,1,4.18,1.69v-1.48Zm-4,7a3.58,3.58,0,1,0-3.55,3.86A3.53,3.53,0,0,0,7212.43,7197.05Z" transform="translate(-7131.76 -7185.48)"/><path class="cls-2" d="M7139.45,7193.18a3.88,3.88,0,1,0,3.55,3.87A3.55,3.55,0,0,0,7139.45,7193.18Z" transform="translate(-7131.76 -7185.48)"/><path class="cls-1" d="M7143.65,7196.85a4.55,4.55,0,0,1,3.32-4.38v-2.41h-4.05v1.48a5.35,5.35,0,0,0-4.17-1.68,7.19,7.19,0,0,0,0,14.38,5.39,5.39,0,0,0,4.36-1.82V7204H7147v-2.81A4.54,4.54,0,0,1,7143.65,7196.85Zm-4.2,4.06a3.88,3.88,0,1,1,3.55-3.86A3.54,3.54,0,0,1,7139.45,7200.91Z" transform="translate(-7131.76 -7185.48)"/></svg>